<svg xmlns="http://www.w3.org/2000/svg" viewBox="0 0 1440 900" preserveAspectRatio="xMidYMid slice">
  <defs>
    <radialGradient id="goldGlow" cx="28%" cy="18%" r="58%">
      <stop offset="0" stop-color="#d5aa47" stop-opacity=".34"/>
      <stop offset=".45" stop-color="#9f7a2c" stop-opacity=".12"/>
      <stop offset="1" stop-color="#0f1511" stop-opacity="0"/>
    </radialGradient>
    <radialGradient id="greenGlow" cx="72%" cy="72%" r="62%">
      <stop offset="0" stop-color="#2c7a49" stop-opacity=".42"/>
      <stop offset=".5" stop-color="#18482f" stop-opacity=".18"/>
      <stop offset="1" stop-color="#0f1511" stop-opacity="0"/>
    </radialGradient>
    <linearGradient id="base" x1="0" y1="0" x2="1" y2="1">
      <stop offset="0" stop-color="#101a13"/>
      <stop offset=".48" stop-color="#14291c"/>
      <stop offset="1" stop-color="#08100c"/>
    </linearGradient>
    <filter id="softBlur" x="-20%" y="-20%" width="140%" height="140%">
      <feGaussianBlur stdDeviation="28"/>
    </filter>
  </defs>
  <rect width="1440" height="900" fill="url(#base)"/>
  <rect width="1440" height="900" fill="url(#goldGlow)"/>
  <rect width="1440" height="900" fill="url(#greenGlow)"/>
  <g filter="url(#softBlur)" opacity=".62">
    <path d="M-120 590 C180 470 330 720 590 590 C850 460 1010 260 1560 330 L1560 940 L-120 940 Z" fill="#1d5a37"/>
    <path d="M-80 250 C230 160 410 350 690 245 C1010 125 1160 70 1510 160 L1510 -80 L-80 -80 Z" fill="#5a4720" opacity=".48"/>
  </g>
  <g fill="none" stroke-linecap="round" opacity=".32">
    <path d="M105 690 C310 560 455 610 615 490 C820 335 990 335 1255 205" stroke="#d5aa47" stroke-width="3"/>
    <path d="M165 742 C385 620 535 670 705 545 C900 402 1035 402 1315 270" stroke="#f2d18a" stroke-width="1.4" opacity=".55"/>
    <path d="M80 785 C320 702 470 768 700 625 C910 495 1070 525 1355 405" stroke="#2f8d55" stroke-width="2.2"/>
  </g>
  <g opacity=".18">
    <circle cx="1180" cy="150" r="3" fill="#f2d18a"/>
    <circle cx="1242" cy="214" r="2.2" fill="#f2d18a"/>
    <circle cx="1114" cy="260" r="1.8" fill="#f2d18a"/>
    <circle cx="260" cy="224" r="2.5" fill="#f2d18a"/>
    <circle cx="322" cy="176" r="1.7" fill="#f2d18a"/>
    <circle cx="1010" cy="710" r="2.4" fill="#7fd69b"/>
    <circle cx="1086" cy="642" r="1.8" fill="#7fd69b"/>
  </g>
</svg>
